<svg version="1.1" xmlns="http://www.w3.org/2000/svg" xmlns:xlink="http://www.w3.org/1999/xlink" width="313" height="398" viewBox="0 0 313 398">
<g id="keylock-traktor-">
<path id="keylock-traktor-" d="M220.850,86.550 C220.850,121.013 220.850,155.487 220.850,189.950 C226.349,189.950 231.850,189.950 237.350,189.950 C237.350,239.445 237.350,288.954 237.350,338.450 C183.456,338.450 129.544,338.450 75.650,338.450 C75.650,288.954 75.650,239.445 75.650,189.950 C81.150,189.950 86.651,189.950 92.150,189.950 C92.150,155.487 92.150,121.013 92.150,86.550 C135.046,86.550 177.954,86.550 220.850,86.550 zM113.050,189.950 C142.014,189.950 170.986,189.950 199.950,189.950 C199.950,165.386 199.950,140.814 199.950,116.250 C170.986,116.250 142.014,116.250 113.050,116.250 C113.050,140.814 113.050,165.386 113.050,189.950 zM142.750,298.850 C151.916,298.850 161.084,298.850 170.250,298.850 C170.250,272.086 170.250,245.314 170.250,218.550 C161.084,218.550 151.916,218.550 142.750,218.550 C142.750,245.314 142.750,272.086 142.750,298.850 z" fill="#FFFFFF" />
</g>
</svg>
