<svg xmlns="http://www.w3.org/2000/svg" xmlns:xlink="http://www.w3.org/1999/xlink" version="1.1" x="0px" y="0px" viewBox="0 0 100 100" enable-background="new 0 0 100 100" xml:space="preserve"><path fill="#000000" transform="translate(100) scale(-1, 1)" d="M81.71,51.47c0,9.74-7.93,17.67-17.67,17.67h-6.26c-1.63,0-2.95-1.319-2.95-2.949  c0-1.631,1.32-2.94,2.95-2.94h6.26c6.49,0,11.78-5.29,11.78-11.78c0-6.5-5.29-11.78-11.78-11.78H34.58  c-6.49,0-11.77,5.28-11.77,11.78c0,6.49,5.28,11.78,11.77,11.78h1.63l-0.54-0.54c-0.97-0.97-0.97-2.55,0-3.53  c0.98-0.979,2.56-0.979,3.54,0l5.24,5.24c0.47,0.47,0.73,1.11,0.73,1.771c0,0.659-0.26,1.3-0.73,1.77l-5.24,5.24  c-0.49,0.49-1.13,0.729-1.77,0.729s-1.28-0.239-1.77-0.729c-0.97-0.98-0.97-2.561,0-3.53l0.53-0.53h-1.62  c-9.74,0-17.66-7.93-17.66-17.67c0-9.74,7.92-17.67,17.66-17.67h29.46C73.78,33.8,81.71,41.73,81.71,51.47z"></path></svg>